<svg width="38" height="38" viewBox="0 0 38 38" fill="none" xmlns="http://www.w3.org/2000/svg">
<path d="M0 4.75C0 2.12665 2.12665 0 4.75 0H33.25C35.8734 0 38 2.12665 38 4.75V33.25C38 35.8734 35.8734 38 33.25 38H4.75C2.12665 38 0 35.8734 0 33.25V4.75Z" fill="url(#paint0_linear)"/>
<path d="M19.855 25.1275L0 23.7025V26.695L19.855 29.2125L29.5925 23.7025L38 25.175V18.8575H28.31L19.855 25.1275Z" fill="url(#paint1_radial)"/>
<ellipse cx="11.305" cy="11.685" rx="6.555" ry="6.555" fill="white"/>
<ellipse cx="11.0295" cy="11.5995" rx="5.8995" ry="5.8995" fill="url(#paint2_radial)"/>
<ellipse cx="11.0599" cy="15.6199" rx="1.17989" ry="1.1799" fill="white"/>
<ellipse cx="29.9724" cy="8.4075" rx="3.2775" ry="3.2775" fill="url(#paint3_radial)"/>
<defs>
<linearGradient id="paint0_linear" x1="19" y1="0" x2="19" y2="38" gradientUnits="userSpaceOnUse">
<stop stop-color="#E65B59"/>
<stop offset="1" stop-color="#E24644"/>
</linearGradient>
<radialGradient id="paint1_radial" cx="0" cy="0" r="1" gradientUnits="userSpaceOnUse" gradientTransform="translate(19 11.3525) rotate(90) scale(33.9625 124.633)">
<stop stop-color="#E24644"/>
<stop offset="0.0001" stop-color="#AC2F2F"/>
<stop offset="1" stop-color="#BC2F2D"/>
</radialGradient>
<radialGradient id="paint2_radial" cx="0" cy="0" r="1" gradientUnits="userSpaceOnUse" gradientTransform="translate(11.02 -4.37001) rotate(90) scale(33.9625)">
<stop stop-color="#84C5E1"/>
<stop offset="0.0001" stop-color="#80BEE1"/>
<stop offset="1" stop-color="#8ECFEB"/>
</radialGradient>
<radialGradient id="paint3_radial" cx="0" cy="0" r="1" gradientUnits="userSpaceOnUse" gradientTransform="translate(29.9249 -0.997507) rotate(90) scale(23.3225)">
<stop stop-color="#F0D59F"/>
<stop offset="1" stop-color="#F3E1B2"/>
</radialGradient>
</defs>
</svg>
